<svg version="1.2" xmlns="http://www.w3.org/2000/svg" viewBox="0 0 100 40" width="100" height="40">
	<title>New Project</title>
	<style>
		.s0 { fill: #000000 } 
		.s1 { fill: #a79b5b } 
		.s2 { fill: #ec1515 } 
		.s3 { fill: #2915ec } 
		.s4 { fill: #6be9e9 } 
		.s5 { fill: #ff5325 } 
		.s6 { fill: #ffffff } 
	</style>
	<g id="Layer 1">
		<path id="Webbplats för" class="s0" aria-label="Webbplats för"  d="m11.6 5q0.6 0 0.9 0v0.2q-0.7 0.2-1 1.1l-2.4 7.8h-0.1-0.1l-2.2-6.6-2 6.6h-0.1-0.1l-2.7-8q-0.3-0.8-0.9-0.9v-0.2q0.5 0 1.4 0 0.9 0 1.3 0v0.2q-0.3 0.1-0.4 0.2-0.2 0.1-0.2 0.3 0 0.2 0.2 0.6l1.8 5.7 1.6-4.9-0.4-1q-0.2-0.8-0.7-0.9v-0.2q0.4 0 1.2 0 1.1 0 1.6 0v0.2q-0.4 0.1-0.6 0.2-0.2 0-0.2 0.3 0 0.2 0.1 0.6l1.8 5.7 1.6-5q0.2-0.6 0.2-1 0-0.4-0.2-0.6-0.3-0.1-0.9-0.2v-0.2q0.8 0 1.5 0zm7.7 7.5q0 0.7 0.1 1.5-0.8 0-2.8 0-2.3 0-3.5 0v-0.3q0.4 0 0.6-0.1 0.2 0 0.3-0.2 0.1-0.3 0.1-0.7v-5.1q0-0.5-0.1-0.7-0.1-0.2-0.3-0.3-0.2-0.1-0.6-0.1v-0.2q1.2 0 3.5 0 1.8 0 2.6 0-0.1 0.7-0.1 1.3 0 0.5 0 0.8h-0.3q-0.1-1-0.4-1.4-0.4-0.4-1.2-0.4h-0.9q-0.5 0-0.7 0-0.2 0.1-0.3 0.3 0 0.2 0 0.7v2.4h1q0.4 0 0.7-0.2 0.2-0.2 0.2-0.5 0.1-0.2 0.2-0.6h0.3q-0.1 0.4-0.1 0.9v0.5q0 0.5 0.1 1.4h-0.3q-0.1-0.6-0.3-0.9-0.2-0.4-0.8-0.4h-1v2.5q0 0.4 0 0.7 0.1 0.2 0.3 0.2 0.2 0.1 0.7 0.1h0.9q0.7 0 1-0.2 0.4-0.2 0.6-0.6 0.2-0.5 0.3-1.3h0.3q-0.1 0.3-0.1 0.9zm5.4-2.6q1.4 0.1 1.9 0.7 0.6 0.5 0.6 1.3 0 0.6-0.4 1.1-0.3 0.5-1 0.7-0.6 0.3-1.5 0.3-0.3 0-0.6 0-0.8 0-1.5 0-1 0-1.6 0v-0.3q0.5 0 0.7-0.1 0.2 0 0.3-0.2 0.1-0.3 0.1-0.7v-5.1q0-0.5-0.1-0.7-0.1-0.2-0.3-0.3-0.2-0.1-0.7-0.1v-0.2q0.6 0 1.6 0h1.3q0.2 0 0.5 0 1.2 0 1.9 0.5 0.6 0.4 0.6 1.2 0 0.6-0.4 1.1-0.4 0.5-1.4 0.7zm-1-3.3q-0.4 0-0.6 0.1-0.1 0.1-0.2 0.3-0.1 0.2-0.1 0.7v2.2h0.8q1 0 1.3-0.4 0.4-0.5 0.4-1.3 0-0.8-0.4-1.2-0.4-0.4-1.2-0.4zm0 7.2q1.1 0 1.7-0.5 0.5-0.4 0.5-1.4 0-0.9-0.5-1.3-0.5-0.5-1.6-0.5h-1v2.6q0 0.5 0.1 0.7 0.1 0.2 0.2 0.3 0.2 0.1 0.6 0.1zm8.6-3.9q1.3 0.2 1.9 0.8 0.6 0.5 0.6 1.3 0 0.6-0.4 1.1-0.3 0.4-1 0.7-0.6 0.3-1.6 0.3-0.3 0-0.5 0-0.8-0.1-1.5-0.1-1.1 0-1.6 0.1v-0.3q0.5 0 0.7-0.1 0.2-0.1 0.3-0.3 0-0.2 0-0.7v-5q0-0.5 0-0.7-0.1-0.2-0.3-0.3-0.2-0.1-0.7-0.1v-0.3q0.5 0.1 1.6 0.1h1.3q0.2-0.1 0.5-0.1 1.2 0 1.9 0.5 0.6 0.5 0.6 1.3 0 0.6-0.4 1.1-0.5 0.5-1.4 0.7zm-1.1-3.3q-0.3 0-0.5 0.1-0.2 0-0.2 0.3-0.1 0.2-0.1 0.7v2.2h0.7q1 0 1.4-0.4 0.4-0.5 0.4-1.3 0-0.8-0.4-1.2-0.4-0.4-1.3-0.4zm0 7.2q1.2 0 1.8-0.5 0.5-0.5 0.5-1.4 0-0.9-0.5-1.3-0.5-0.5-1.6-0.5h-1v2.6q0 0.5 0.1 0.7 0 0.2 0.2 0.3 0.2 0.1 0.5 0.1zm7.6-2.9h-0.8v1.8q0 0.5 0.1 0.7 0 0.2 0.3 0.3 0.2 0.1 0.6 0.1v0.2q-0.6 0-1.6 0-1.1 0-1.6 0v-0.2q0.4 0 0.6-0.1 0.3-0.1 0.3-0.3 0.1-0.2 0.1-0.7v-5q0-0.5-0.1-0.7 0-0.3-0.3-0.3-0.2-0.1-0.6-0.1v-0.3q0.5 0 1.5 0h1.4q0.2 0 0.6 0 1.3 0 2 0.6 0.8 0.6 0.8 1.5 0 0.7-0.3 1.2-0.3 0.6-1.1 0.9-0.7 0.4-1.9 0.4zm0.1-4.3q-0.4 0-0.6 0.1-0.2 0-0.2 0.3-0.1 0.2-0.1 0.7v3h0.7q1.2 0 1.6-0.6 0.5-0.6 0.5-1.5 0-1-0.4-1.5-0.5-0.5-1.5-0.5zm7.3-0.3v0.3q-0.5 0-0.7 0.1-0.2 0-0.3 0.3-0.1 0.2-0.1 0.7v5q0 0.5 0.1 0.7 0.1 0.2 0.3 0.3 0.2 0.1 0.7 0.1h0.8q0.9 0 1.3-0.6 0.5-0.5 0.6-1.7h0.3q0 0.4 0 1 0 0.7 0.1 1.5-0.8 0-2.8 0-2.4 0-3.6 0v-0.2q0.5 0 0.7-0.1 0.2-0.1 0.3-0.3 0.1-0.2 0.1-0.7v-5q0-0.5-0.1-0.7-0.1-0.3-0.3-0.3-0.2-0.1-0.7-0.1v-0.3q0.6 0 1.7 0 1 0 1.6 0zm10.5 6.7q0.3 0.8 0.9 0.8v0.2q-0.5 0-1.4 0-1.1 0-1.6 0v-0.2q0.5 0 0.7-0.1 0.2-0.1 0.2-0.4 0-0.2-0.2-0.6l-0.6-1.4h-3.1l-0.5 0.9q-0.2 0.5-0.2 0.8 0 0.4 0.3 0.6 0.2 0.1 0.7 0.2v0.2q-0.4 0-1.1 0-0.8 0-1.1 0v-0.2q0.3-0.1 0.5-0.4 0.3-0.3 0.5-0.8l2.8-6.4h0.2zm-5-1.9h2.9l-1.4-3.2zm12.8-4.8q-0.1 0.9-0.1 1.5 0 0.7 0.1 1.1h-0.3q-0.1-0.9-0.2-1.4-0.2-0.4-0.6-0.6-0.4-0.3-1-0.3h-0.9v6q0 0.5 0.1 0.8 0.1 0.2 0.4 0.3 0.3 0.1 0.8 0.1v0.3q-0.6-0.1-1.8-0.1-1.3 0-1.9 0.1v-0.3q0.5 0 0.8-0.1 0.3-0.1 0.4-0.3 0.1-0.3 0.1-0.8v-6h-0.9q-0.6 0-1 0.3-0.4 0.2-0.5 0.6-0.2 0.5-0.3 1.4h-0.3q0.1-0.4 0.1-1.1 0-0.6-0.1-1.5 1 0.1 3.6 0.1 2.5 0 3.5-0.1zm3.7-0.1q0.6 0 0.9 0.1 0.3 0.1 0.7 0.3 0.3 0.2 0.4 0.2 0.1 0 0.2-0.1 0.1-0.2 0.1-0.4h0.3q-0.1 0.6-0.1 2.3h-0.3q0-0.9-0.6-1.6-0.5-0.6-1.5-0.6-0.6 0-1.1 0.4-0.4 0.3-0.4 0.9 0 0.4 0.2 0.7 0.2 0.2 0.5 0.5 0.3 0.2 0.9 0.5l0.4 0.2q0.8 0.4 1.3 0.8 0.4 0.3 0.7 0.7 0.3 0.4 0.3 1 0 1-0.7 1.6-0.8 0.6-1.9 0.6-0.6 0-1-0.2-0.4-0.1-0.7-0.3-0.3-0.2-0.5-0.2-0.1 0-0.1 0.2-0.1 0.1-0.1 0.4h-0.3q0-0.7 0-2.8h0.3q0.1 1.2 0.7 1.9 0.5 0.7 1.6 0.7 0.7 0 1.1-0.4 0.5-0.3 0.5-1 0-0.5-0.2-0.8-0.3-0.3-0.7-0.6-0.4-0.2-1.1-0.6-1.1-0.5-1.6-1.1-0.6-0.5-0.6-1.4 0-0.9 0.7-1.4 0.7-0.5 1.7-0.5zm13.4 0.1q-0.1 0.8-0.1 1.4 0 0.5 0 0.8h-0.3q-0.1-1-0.4-1.4-0.4-0.5-1.1-0.5h-1q-0.4 0-0.6 0.1-0.2 0.1-0.3 0.3-0.1 0.2-0.1 0.7v2.4h1.1q0.4 0 0.6-0.2 0.2-0.3 0.3-0.5 0-0.3 0.1-0.6h0.3q0 0.4 0 0.9v0.5q0 0.5 0 1.4h-0.2q-0.1-0.6-0.3-0.9-0.3-0.4-0.8-0.4h-1.1v2.4q0 0.5 0.1 0.7 0.1 0.2 0.4 0.3 0.2 0.1 0.8 0.1v0.3q-0.7-0.1-1.9-0.1-1.1 0-1.6 0.1v-0.3q0.4 0 0.6-0.1 0.3-0.1 0.3-0.3 0.1-0.2 0.1-0.7v-5q0-0.5-0.1-0.7 0-0.2-0.3-0.3-0.2-0.1-0.6-0.1v-0.3q1.2 0.1 3.5 0.1 1.8 0 2.6-0.1zm5-0.1q1.1 0 2 0.4 0.9 0.5 1.4 1.4 0.5 0.9 0.5 2.1 0 1.3-0.5 2.2-0.5 0.9-1.4 1.5-0.9 0.5-2.1 0.5-1.1 0-2-0.5-0.9-0.5-1.4-1.4-0.5-0.9-0.5-2.1 0-1.2 0.5-2.2 0.5-0.9 1.4-1.4 0.9-0.5 2.1-0.5zm-0.1 0.2q-0.8 0-1.4 0.5-0.6 0.5-0.9 1.4-0.3 0.8-0.3 1.9 0 1.2 0.4 2 0.3 0.9 0.9 1.4 0.6 0.4 1.4 0.4 0.8 0 1.4-0.5 0.6-0.5 0.9-1.3 0.3-0.9 0.3-2 0-1.1-0.4-2-0.3-0.9-0.9-1.3-0.6-0.5-1.4-0.5zm-1.3-2.9q0.3 0 0.5 0.2 0.2 0.3 0.2 0.6 0 0.3-0.2 0.5-0.2 0.2-0.5 0.2-0.3 0-0.5-0.2-0.3-0.2-0.3-0.5 0-0.3 0.3-0.6 0.2-0.2 0.5-0.2zm2.7 0q0.3 0 0.5 0.2 0.2 0.3 0.2 0.6 0 0.3-0.2 0.5-0.2 0.2-0.5 0.2-0.3 0-0.5-0.2-0.3-0.2-0.3-0.5 0-0.3 0.3-0.6 0.2-0.2 0.5-0.2zm11 9.9l0.2 0.1q-0.3 0.4-0.6 0.6-0.3 0.2-0.7 0.2-1.1 0-1.3-1l-0.4-1.6q-0.2-0.7-0.6-1-0.3-0.2-1-0.2h-0.7v2.2q0 0.5 0.1 0.7 0 0.2 0.2 0.3 0.3 0.1 0.7 0.1v0.3q-0.6-0.1-1.6-0.1-1.1 0-1.6 0.1v-0.3q0.4 0 0.6-0.1 0.2-0.1 0.3-0.3 0.1-0.2 0.1-0.7v-5q0-0.5-0.1-0.7-0.1-0.2-0.3-0.3-0.2-0.1-0.6-0.1v-0.3q0.5 0.1 1.5 0.1h1.3q0.2 0 0.5 0 1.4 0 2.2 0.5 0.8 0.5 0.8 1.4 0 0.7-0.6 1.3-0.6 0.6-2 0.8 0.3 0 0.5 0.1 0.6 0.1 1 0.4 0.4 0.3 0.6 0.9l0.3 1.2q0.1 0.4 0.2 0.6 0.1 0.2 0.3 0.2 0.3 0 0.7-0.4zm-4.3-6.8q-0.4 0-0.5 0.1-0.2 0.1-0.3 0.3 0 0.2 0 0.7v2.5h0.8q1.2 0 1.6-0.4 0.4-0.5 0.4-1.4 0-0.9-0.5-1.3-0.5-0.5-1.5-0.5z"/>
		<path id="Övning" class="s0" aria-label="Övning"  d="m30.7 23.8q1.2 0 2.1 0.6 0.9 0.5 1.4 1.6 0.5 1 0.5 2.4 0 1.4-0.5 2.5-0.5 1.1-1.4 1.7-0.9 0.6-2.1 0.6-1.2 0-2.1-0.6-0.9-0.5-1.4-1.5-0.5-1.1-0.5-2.5 0-1.4 0.5-2.5 0.5-1.1 1.4-1.7 0.9-0.6 2.1-0.6zm0 0.3q-0.9 0-1.5 0.5-0.6 0.6-0.9 1.6-0.4 1-0.4 2.3 0 1.4 0.4 2.4 0.4 1 1 1.5 0.7 0.5 1.4 0.5 0.9 0 1.5-0.5 0.6-0.6 0.9-1.6 0.4-1 0.4-2.3 0-1.3-0.4-2.3-0.4-1-1-1.6-0.7-0.5-1.4-0.5zm-1.4-2.4q0.3 0 0.5 0.3 0.3 0.2 0.3 0.5 0 0.3-0.3 0.5-0.2 0.2-0.5 0.2-0.3 0-0.5-0.2-0.2-0.2-0.2-0.5 0-0.3 0.2-0.5 0.2-0.3 0.5-0.3zm2.7 0q0.3 0 0.5 0.3 0.3 0.2 0.3 0.5 0 0.3-0.3 0.5-0.2 0.2-0.5 0.2-0.3 0-0.5-0.2-0.2-0.2-0.2-0.5 0-0.3 0.2-0.5 0.2-0.3 0.5-0.3zm10.3 3.6q0.6 0 0.9 0v0.2q-0.4 0.1-0.6 0.4-0.2 0.2-0.5 0.9l-2.8 6.3h-0.2l-2.9-6.7q-0.4-0.8-0.9-0.9v-0.2q0.5 0 1.4 0 1 0 1.6 0v0.2q-0.5 0.1-0.7 0.2-0.2 0.1-0.2 0.3 0 0.2 0.1 0.6l2.2 4.9 1.9-4.2q0.3-0.7 0.3-1.1 0-0.3-0.2-0.5-0.3-0.1-0.8-0.2v-0.2q0.4 0 1.4 0zm9.1 0v0.2q-0.4 0.1-0.7 0.2-0.2 0.1-0.2 0.3-0.1 0.3-0.1 0.8v6.3h-0.3l-5.1-7.1v5.5q0 0.5 0.1 0.8 0.1 0.2 0.3 0.3 0.3 0.1 0.8 0.1v0.3q-0.5 0-1.3 0-0.8 0-1.2 0v-0.3q0.4 0 0.6-0.1 0.3-0.1 0.3-0.3 0.1-0.3 0.1-0.8v-4.9q0-0.5-0.1-0.7 0-0.2-0.3-0.3-0.2 0-0.6-0.1v-0.2q0.4 0 1.2 0 0.7 0 1.1 0l4.1 5.6v-4.1q0-0.5-0.1-0.8-0.1-0.2-0.3-0.3-0.3-0.1-0.8-0.2v-0.2q0.5 0 1.3 0 0.8 0 1.2 0zm4.1 0v0.2q-0.4 0.1-0.6 0.1-0.2 0.1-0.3 0.3-0.1 0.2-0.1 0.7v5.1q0 0.4 0.1 0.7 0.1 0.2 0.3 0.2 0.2 0.1 0.6 0.1v0.3q-0.5 0-1.6 0-1.1 0-1.6 0v-0.3q0.5 0 0.7-0.1 0.2 0 0.3-0.2 0-0.3 0-0.7v-5.1q0-0.5 0-0.7-0.1-0.2-0.3-0.3-0.2 0-0.7-0.1v-0.2q0.5 0 1.6 0 1 0 1.6 0zm8.8 0v0.2q-0.4 0.1-0.6 0.2-0.3 0.1-0.3 0.3-0.1 0.3-0.1 0.8v6.3h-0.3l-5.1-7.1v5.5q0 0.5 0.1 0.8 0.1 0.2 0.3 0.3 0.3 0.1 0.8 0.1v0.3q-0.5 0-1.3 0-0.8 0-1.2 0v-0.3q0.4 0 0.7-0.1 0.2-0.1 0.3-0.3 0-0.3 0-0.8v-4.9q0-0.5 0-0.7-0.1-0.2-0.3-0.3-0.2 0-0.7-0.1v-0.2q0.4 0 1.2 0 0.7 0 1.2 0l4 5.6v-4.1q0-0.5-0.1-0.8-0.1-0.2-0.3-0.3-0.2-0.1-0.8-0.2v-0.2q0.5 0 1.3 0 0.8 0 1.2 0zm4.8-0.2q0.7 0 1.1 0.2 0.5 0.2 1 0.6 0.1 0.2 0.2 0.2 0.3 0 0.3-0.8h0.3q0 0.7 0 2.5h-0.3q-0.1-0.5-0.3-0.8-0.1-0.4-0.4-0.7-0.4-0.5-0.8-0.7-0.5-0.3-1.1-0.3-0.8 0-1.4 0.5-0.5 0.5-0.8 1.3-0.3 0.9-0.3 2.1 0 1.9 0.7 2.8 0.7 0.9 2.1 0.9 0.5 0 1-0.1 0.2 0 0.3-0.1 0.1-0.2 0.1-0.4v-1.1q0-0.5-0.1-0.7-0.1-0.3-0.4-0.4-0.2 0-0.8-0.1v-0.2q0.7 0 1.8 0 0.8 0 1.3 0v0.2q-0.3 0.1-0.4 0.1-0.2 0.1-0.2 0.3-0.1 0.2-0.1 0.7v1.9h-0.2q0-0.3-0.2-0.3-0.1 0-0.3 0.1-0.2 0.1-0.3 0.1-0.8 0.3-1.6 0.3-1.9 0-3-1-1-1.1-1-2.9 0-1.3 0.5-2.2 0.5-1 1.3-1.5 0.9-0.5 2-0.5z"/>
		<path id="Shape 1" fill-rule="evenodd" class="s0" d="m2 20h6v1h-6z"/>
		<path id="Shape 2" fill-rule="evenodd" class="s1" d="m9 20h7v1h-7z"/>
		<path id="Shape 3" fill-rule="evenodd" class="s2" d="m17 20h5v1h-5z"/>
		<path id="Shape 4" fill-rule="evenodd" class="s0" d="m2 22h12v1h-12z"/>
		<path id="Shape 5" fill-rule="evenodd" class="s0" d="m15 22h7v1h-7z"/>
		<path id="Shape 6" fill-rule="evenodd" class="s1" d="m9 18h12v1h-12z"/>
		<path id="Shape 7" fill-rule="evenodd" class="s3" d="m7 24h5v1h-5z"/>
		<path id="Shape 8" fill-rule="evenodd" class="s3" d="m2 27h6v1h-6z"/>
		<path id="Shape 9" fill-rule="evenodd" class="s2" d="m2 24h4v1h-4z"/>
		<path id="Shape 10" fill-rule="evenodd" class="s1" d="m9 27h5v1h-5z"/>
		<path id="Shape 11" fill-rule="evenodd" class="s2" d="m2 29h10v1h-10z"/>
		<path id="Shape 12" fill-rule="evenodd" class="s1" d="m13 29h4v1h-4z"/>
		<path id="Shape 13" fill-rule="evenodd" class="s0" d="m2 31h9v1h-9z"/>
		<path id="Shape 14" fill-rule="evenodd" class="s0" d="m8 33h8v1h-8z"/>
		<path id="Shape 15" fill-rule="evenodd" class="s3" d="m2 36h8v1h-8z"/>
		<path id="Shape 16" fill-rule="evenodd" class="s4" d="m12 31h8v1h-8z"/>
		<path id="Shape 17" fill-rule="evenodd" class="s2" d="m2 33h5v1h-5z"/>
		<path id="Shape 18" fill-rule="evenodd" class="s1" d="m11 36h4v1h-4z"/>
		<path id="Shape 19" fill-rule="evenodd" class="s0" d="m2 38h17v1h-17z"/>
		<path id="Shape 20" fill-rule="evenodd" class="s3" d="m2 18h6v1h-6z"/>
		<path id="Shape 21" fill-rule="evenodd" class="s5" d="m79.6 19.1l11.9-0.1-1.5 13-4.2 1.7-4.8-1.7z"/>
		<path id="5" class="s6" aria-label="5"  d="m83.6 25.9l-1.1-0.2 0.6-5.4h5.4v1.3h-4.3l-0.3 2.9q0.8-0.5 1.8-0.5 1.4 0 2.3 1 0.8 1 0.8 2.6 0 1.6-0.9 2.6-0.9 0.9-2.4 0.9-1.5 0-2.4-0.7-0.8-0.8-1-2.2h1.3q0.1 0.9 0.7 1.4 0.5 0.4 1.4 0.4 0.9 0 1.4-0.6 0.6-0.6 0.6-1.8 0-1.1-0.6-1.7-0.6-0.6-1.6-0.6-0.8 0-1.3 0.3z"/>
	</g>
</svg>