<svg version="1.2" xmlns="http://www.w3.org/2000/svg" viewBox="0 0 120 80" width="120" height="80">
	<title>projektLogo-svg</title>
	<style>
		.s0 { fill: #000000 } 
		.s1 { fill: #266ec0 } 
		.s2 { fill: #6a9eda } 
		.s3 { fill: #000000;stroke: #000000;stroke-miterlimit:100 } 
	</style>
	<g id="Layer 1">
		<path id="Shape 1 copy" fill-rule="evenodd" class="s0" d="m0 44.6h120v35.8h-120z"/>
		<path id="Air for" class="s1" d="m7 17.8l-2.9 21.2v3h6.5l0.5-4.9h2.8l0.4 4.9h6.6v-3l-2.9-21.1zm4.5 13.3l0.6-7.2h0.7l0.6 7.2zm17.7 10.8v-24.1h-6.6v24.1zm2.4-24.1v24.1h6.6v-7.5h1.3l1.8 7.5h6.4v-3l-2.1-5.9c1-0.3 1.8-1.6 1.8-2.8v-9.4c0-1.8-1.1-3-2.6-3zm9.2 6v4.5h-2.6v-4.5zm29.9 10h6.5v-6.1h-6.5v-3.9h6.5l1-3v-3h-14.1v24.1h6.6zm22.2 8.1c1.5 0 2.6-1.2 2.6-3v-18.1c0-1.8-1.1-3-2.6-3h-10.5c-1.6 0-2.6 1.2-2.6 3v18.1c0 1.8 1 3 2.6 3zm-4-18v12h-2.7v-12zm9-6.1v24.1h6.6v-7.5h1.3l1.8 7.5h6.4v-3l-2.1-5.9c1-0.3 1.8-1.6 1.8-2.7v-9.5c0-1.8-1.1-3-2.6-3zm9.2 6.1v4.5h-2.6v-4.5z"/>
		<path id="Everyone" class="s2" d="m15.3 72v-4.4h-6.2v-2.4h5.4v-4.3h-5.4v-2h5.4l0.8-2.2v-2.2h-11.7v17.5zm3.6 0h8.2l2.8-16.1v-1.4h-5.5l-1.1 13.1h-0.6l-1.2-13.1h-5.4v1.4zm23.9 0v-4.4h-6.2v-2.4h5.4v-4.3h-5.4v-2h5.4l0.8-2.2v-2.2h-11.7v17.5zm1.6-17.5v17.5h5.4v-5.4h1.1l1.5 5.4h5.4v-2.1l-1.8-4.3c0.9-0.3 1.5-1.2 1.5-2v-6.9c0-1.3-0.9-2.2-2.2-2.2zm7.6 4.4v3.3h-2.2v-3.3zm10.8 8.3v4.8h5.5v-4.8l4.3-10.5v-2.2h-5.5l-1.3 6.8h-0.4l-1.4-6.8h-5.4v2.2zm21.9 4.8c1.3 0 2.2-0.9 2.2-2.2v-13.1c0-1.3-0.9-2.2-2.2-2.2h-8.7c-1.3 0-2.2 0.9-2.2 2.2v13.1c0 1.3 0.9 2.2 2.2 2.2zm-3.3-13.1v8.7h-2.2v-8.7zm15.8 3.7l-2.5-8.1h-5.8v17.5h5v-2.2l-0.7-5.9h0.4l2.6 8.1h5.8v-17.5h-5.1v2.2l0.8 5.9zm18.4 9.4v-4.4h-6.2v-2.4h5.4v-4.4h-5.4v-1.9h5.4l0.8-2.2v-2.2h-11.7v17.5z"/>
	</g>
	<path id="Layer" fill-rule="evenodd" class="s0" d="m72.2 2.1c0 0.8 0.6 1.4 1.4 1.4h1.4c0.7 0 1.4 0.6 1.4 1.4 0 0.8-0.6 1.2-1.4 1.2l-14.2 0.1c-0.8 0-1.3 0.7-1.3 1.5 0 0.8 0.7 1.5 1.4 1.5l14.1-0.1c2.3 0 4.2-1.9 4.2-4.2 0-2.3-1.9-4.2-4.2-4.2h-1.4c-0.8 0-1.4 0.6-1.4 1.4zm-7.2 20.6c0 0.8 0.6 1.4 1.4 1.4h1.4c2.3 0 4.2-1.9 4.2-4.2 0-2.4-1.9-4.4-4.2-4.4h-16.9c-0.8 0-1.4 0.8-1.4 1.6 0 0.7 0.7 1.4 1.5 1.4h16.8c0.8 0 1.4 0.6 1.4 1.4 0 0.7-0.6 1.4-1.4 1.4h-1.4c-0.8 0-1.4 0.6-1.4 1.4zm20.1-3.7h1.4c2.4 0 4.2-1.9 4.2-4.2 0-2.3-1.8-4.4-4.1-4.4h-5.7c-0.7 0-1.4 0.8-1.4 1.6 0 0.8 0.6 1.4 1.4 1.4h5.6c0.8 0 1.4 0.6 1.4 1.4 0 0.8-0.6 1.4-1.4 1.4h-1.4c-0.8 0-1.4 0.6-1.4 1.4 0 0.8 0.6 1.4 1.4 1.4z"/>
	<path id="Layer copy" fill-rule="evenodd" class="s0" d="m84.6 2.8c0 0.8 0.6 1.4 1.4 1.4h1.4c0.8 0 1.4 0.6 1.4 1.4 0 0.8-0.6 1.2-1.4 1.2h-5.8c-0.8 0-1.9 1-2 1.5 0 0.4 1.3 1.6 2.1 1.6l5.7-0.1c2.3 0 4.2-1.9 4.2-4.2 0-2.3-1.9-4.2-4.2-4.2h-1.4c-0.8 0-1.4 0.6-1.4 1.4zm-28.1 25.7h1.4c2.3 0 4.2-1.9 4.2-4.2 0-2.4-1.9-4.4-4.2-4.4h-6.4c-0.8 0-1.9 1.2-1.9 1.4 0 0.3 1.1 1.5 1.8 1.5l6.5 0.1c0.7 0 1.4 0.6 1.4 1.4 0 0.7-0.7 1.4-1.4 1.4h-1.4c-0.8 0-1.4 0.6-1.4 1.4 0 0.7 0.6 1.4 1.4 1.4z"/>
	<path id="Shape 1" fill-rule="evenodd" class="s3" d="m18.7 6.7h41.8v2h-41.8l-2.8-0.9z"/>
	<path id="Shape 1 copy 2" fill-rule="evenodd" class="s3" d="m30.4 16h25.8v2h-25.8l-1.7-1z"/>
	<path id="Shape 1 copy 3" fill-rule="evenodd" class="s3" d="m9.6 10.9h71.7v2h-71.7l-6.2-1.1z"/>
</svg>